<svg width="865" height="866" viewBox="0 0 865 866" fill="none" xmlns="http://www.w3.org/2000/svg">
<path d="M865 712.129C862.597 729.932 856.59 748.16 846.979 766.811C838.169 785.462 826.155 801.993 810.937 816.405C795.72 830.817 777.299 842.686 755.674 852.012C734.049 861.337 709.62 866 682.389 866C610.306 866 545.831 832.937 488.965 766.811C426.493 832.937 352.007 866 265.507 866C88.5023 866 0 788.853 0 634.558C0 579.453 13.6157 528.162 40.8472 480.687C68.8796 432.364 116.134 389.976 182.611 353.521C167.394 327.24 154.579 299.688 144.167 270.863C133.755 242.039 128.549 216.182 128.549 193.292C128.549 64.4307 189.419 0 311.16 0C433.701 0 494.972 53.4097 494.972 160.229C494.972 202.618 479.354 241.191 448.118 275.95C417.683 310.709 379.639 341.229 333.986 367.51C363.62 411.594 394.857 456.526 427.694 502.305C460.532 547.237 496.174 594.289 534.618 643.46C563.451 611.244 585.076 580.301 599.493 550.628C614.711 520.956 622.319 492.132 622.319 464.156C622.319 403.116 587.079 372.596 516.597 372.596V334.446H800.125V372.596C772.893 372.596 750.868 381.498 734.049 399.301C718.03 417.104 702.012 439.57 685.993 466.699C678.785 481.111 671.977 496.371 665.569 512.479C659.963 527.739 653.155 544.27 645.146 562.073C637.938 579.029 627.926 597.256 615.111 616.755C603.097 635.406 587.079 654.905 567.056 675.251C598.292 702.38 625.924 726.541 649.951 747.736C673.979 768.93 695.204 779.527 713.625 779.527C725.639 779.527 738.053 776.56 750.868 770.626C764.484 764.691 776.898 757.485 788.111 749.007C799.324 740.53 808.935 731.628 816.944 722.302C825.755 712.129 831.361 703.652 833.764 696.869L865 712.129ZM463.736 727.389C412.477 666.349 364.822 609.125 320.771 555.715C277.521 501.458 237.875 445.081 201.833 386.584C137.759 423.886 105.722 474.329 105.722 537.912C105.722 704.923 174.201 788.429 311.16 788.429C335.988 788.429 361.218 785.038 386.847 778.256C412.477 771.473 438.107 754.518 463.736 727.389ZM311.16 334.446C378.438 266.625 412.076 210.248 412.076 165.316C412.076 81.3862 378.438 39.4214 311.16 39.4214C253.493 39.4214 224.66 77.9951 224.66 155.142C224.66 194.988 253.493 254.756 311.16 334.446Z" fill="white" fill-opacity="0.05"/>
</svg>
