<svg width="90" height="23" viewBox="0 0 90 23" fill="none" xmlns="http://www.w3.org/2000/svg">
<path d="M30.3 17L34.02 6.2H35.4825L39.2025 17H38.055L34.5225 6.815H34.9575L31.4475 17H30.3ZM31.9575 14.3825V13.3475H37.5375V14.3825H31.9575Z" fill="white"/>
<path d="M39.8068 17V16.7675L45.0343 9.9275H40.1968V8.9H46.8493V9.155L41.6293 15.9725H46.5643V17H39.8068Z" fill="white"/>
<path d="M51.5938 17.2025C51.1088 17.2025 50.6838 17.1275 50.3188 16.9775C49.9588 16.8275 49.6513 16.625 49.3963 16.37C49.1463 16.115 48.9438 15.825 48.7888 15.5C48.6338 15.17 48.5213 14.8225 48.4513 14.4575C48.3813 14.0875 48.3463 13.72 48.3463 13.355V8.9H49.4563V13.0325C49.4563 13.4775 49.4988 13.89 49.5838 14.27C49.6688 14.65 49.8038 14.9825 49.9888 15.2675C50.1788 15.5475 50.4213 15.765 50.7163 15.92C51.0163 16.075 51.3788 16.1525 51.8038 16.1525C52.1938 16.1525 52.5363 16.085 52.8313 15.95C53.1313 15.815 53.3813 15.6225 53.5813 15.3725C53.7863 15.1175 53.9413 14.81 54.0463 14.45C54.1513 14.085 54.2038 13.675 54.2038 13.22L54.9838 13.3925C54.9838 14.2225 54.8388 14.92 54.5488 15.485C54.2588 16.05 53.8588 16.4775 53.3488 16.7675C52.8388 17.0575 52.2538 17.2025 51.5938 17.2025ZM54.3163 17V15.005H54.2038V8.9H55.3063V17H54.3163Z" fill="white"/>
<path d="M57.4025 17V8.9H58.3925V10.85L58.1975 10.595C58.2875 10.355 58.405 10.135 58.55 9.935C58.695 9.73 58.8525 9.5625 59.0225 9.4325C59.2325 9.2475 59.4775 9.1075 59.7575 9.0125C60.0375 8.9125 60.32 8.855 60.605 8.84C60.89 8.82 61.15 8.84 61.385 8.9V9.935C61.09 9.86 60.7675 9.8425 60.4175 9.8825C60.0675 9.9225 59.745 10.0625 59.45 10.3025C59.18 10.5125 58.9775 10.765 58.8425 11.06C58.7075 11.35 58.6175 11.66 58.5725 11.99C58.5275 12.315 58.505 12.6375 58.505 12.9575V17H57.4025Z" fill="white"/>
<path d="M65.9607 17V6.2H67.0632V15.9425H72.1932V17H65.9607Z" fill="white"/>
<path d="M73.6219 7.3625V6.125H74.7244V7.3625H73.6219ZM73.6219 17V8.9H74.7244V17H73.6219Z" fill="white"/>
<path d="M77.7754 17V8.3C77.7754 8.09 77.7854 7.8825 77.8054 7.6775C77.8304 7.4725 77.8779 7.2775 77.9479 7.0925C78.0179 6.9025 78.1279 6.7275 78.2779 6.5675C78.4429 6.3875 78.6228 6.2575 78.8178 6.1775C79.0128 6.0925 79.2154 6.0375 79.4254 6.0125C79.6404 5.9875 79.8504 5.975 80.0554 5.975H81.0904V6.905H80.1303C79.7103 6.905 79.3953 7.0075 79.1853 7.2125C78.9803 7.4175 78.8779 7.74 78.8779 8.18V17H77.7754ZM76.3728 9.845V8.9H81.0904V9.845H76.3728Z" fill="white"/>
<path d="M85.4248 17.225C84.6348 17.225 83.9498 17.05 83.3698 16.7C82.7948 16.35 82.3473 15.8575 82.0273 15.2225C81.7073 14.5875 81.5473 13.8425 81.5473 12.9875C81.5473 12.1025 81.7048 11.3375 82.0198 10.6925C82.3348 10.0475 82.7773 9.55 83.3473 9.2C83.9223 8.85 84.5998 8.675 85.3798 8.675C86.1798 8.675 86.8623 8.86 87.4273 9.23C87.9923 9.595 88.4198 10.12 88.7098 10.805C88.9998 11.49 89.1323 12.3075 89.1073 13.2575H87.9823V12.8675C87.9623 11.8175 87.7348 11.025 87.2998 10.49C86.8698 9.955 86.2398 9.6875 85.4098 9.6875C84.5398 9.6875 83.8723 9.97 83.4073 10.535C82.9473 11.1 82.7173 11.905 82.7173 12.95C82.7173 13.97 82.9473 14.7625 83.4073 15.3275C83.8723 15.8875 84.5298 16.1675 85.3798 16.1675C85.9598 16.1675 86.4648 16.035 86.8948 15.77C87.3298 15.5 87.6723 15.1125 87.9223 14.6075L88.9498 15.005C88.6298 15.71 88.1573 16.2575 87.5323 16.6475C86.9123 17.0325 86.2098 17.225 85.4248 17.225ZM82.3273 13.2575V12.335H88.5148V13.2575H82.3273Z" fill="white"/>
<path d="M0 22.0724H2.84204L5.0656 16.8301H6.28782L7.17135 14.7538H5.94913L10.9705 2.9144L19.158 22.0724H22L12.8112 0.425781H9.18876L0 22.0724Z" fill="white"/>
<path d="M13.6065 1.08843L13.8862 0.425781H16.7283L15.0201 4.43114L13.6065 1.08843Z" fill="url(#paint0_linear_5901_1942)"/>
<path d="M11.5449 5.59474L12.9732 8.92272L8.37886 19.7166H16.2865L17.2142 22.0727H4.55021L11.5449 5.59474Z" fill="url(#paint1_linear_5901_1942)"/>
<path d="M11 14.7537L10.1165 16.83H17.3173L16.4337 14.7537H11Z" fill="white"/>
<defs>
<linearGradient id="paint0_linear_5901_1942" x1="165.665" y1="-15.5151" x2="122.672" y2="211.556" gradientUnits="userSpaceOnUse">
<stop stop-color="#D0C682"/>
<stop offset="1" stop-color="#827247"/>
</linearGradient>
<linearGradient id="paint1_linear_5901_1942" x1="147.357" y1="-3.347" x2="136.824" y2="53.0709" gradientUnits="userSpaceOnUse">
<stop stop-color="#D0C682"/>
<stop offset="1" stop-color="#827247"/>
</linearGradient>
</defs>
</svg>
