<svg width="68" height="68" viewBox="0 0 68 68" fill="none" xmlns="http://www.w3.org/2000/svg">
<circle cx="34" cy="34" r="34" fill="white" fill-opacity="0.03"/>
<circle cx="33.9996" cy="33.9999" r="25.1304" fill="white" fill-opacity="0.03"/>
<circle cx="34.0003" cy="34" r="17.2464" fill="white" fill-opacity="0.03"/>
<path d="M34.1299 26C38.0673 26.0002 41.2588 29.1924 41.2588 33.1299C41.2584 37.0588 34.1618 46.4577 34.1299 46.5C34.1299 46.5 27.0004 37.0676 27 33.1299C27 29.1923 30.1923 26 34.1299 26ZM34.1299 30.1074C32.4609 30.1074 31.1074 31.4609 31.1074 33.1299C31.1076 34.7987 32.461 36.1514 34.1299 36.1514C35.7986 36.1512 37.1512 34.7986 37.1514 33.1299C37.1514 31.461 35.7988 30.1076 34.1299 30.1074Z" fill="white"/>
</svg>
