<svg width="63" height="83" viewBox="0 0 63 83" fill="none" xmlns="http://www.w3.org/2000/svg">
<path d="M0 9.21952C0 4.87339 0 2.70033 1.35017 1.35017C2.70033 0 4.87339 0 9.21951 0H53.7805C58.1266 0 60.2997 0 61.6498 1.35017C63 2.70033 63 4.87339 63 9.21951V64.0228C63 72.263 63 76.383 60.4067 77.6445C57.8134 78.906 54.5721 76.3627 48.0893 71.2761L37.1912 62.725C34.4588 60.5811 33.0926 59.5091 31.5 59.5091C29.9074 59.5091 28.5412 60.5811 25.8088 62.725L14.9107 71.2761C8.42794 76.3627 5.18656 78.906 2.59328 77.6445C0 76.383 0 72.263 0 64.0228V9.21952Z" fill="white"/>
<mask id="mask0_440_1650" style="mask-type:alpha" maskUnits="userSpaceOnUse" x="0" y="0" width="63" height="78">
<path d="M0 9.21952C0 4.87339 0 2.70033 1.35017 1.35017C2.70033 0 4.87339 0 9.21951 0H53.7805C58.1266 0 60.2997 0 61.6498 1.35017C63 2.70033 63 4.87339 63 9.21951V64.0228C63 72.263 63 76.383 60.4067 77.6445C57.8134 78.906 54.5721 76.3627 48.0893 71.2761L37.1912 62.725C34.4588 60.5811 33.0926 59.5091 31.5 59.5091C29.9074 59.5091 28.5412 60.5811 25.8088 62.725L14.9107 71.2761C8.42794 76.3627 5.18656 78.906 2.59328 77.6445C0 76.383 0 72.263 0 64.0228V9.21952Z" fill="white"/>
</mask>
<g mask="url(#mask0_440_1650)">
<path d="M30.3381 15.3657C31.8866 15.3657 33.2029 15.611 34.2868 16.1015C35.3708 16.592 36.1644 17.0447 36.6676 17.4598C37.9451 18.4785 38.7194 17.7994 38.9904 15.4223H40.326C40.2485 16.4788 40.1905 17.7428 40.1517 19.2143C40.113 20.648 40.0937 22.5912 40.0937 25.0437H38.7581C38.5258 23.6476 38.1193 22.2893 37.5387 20.9687C36.9967 19.6482 36.1837 18.5728 35.0998 17.7428C34.0158 16.875 32.6028 16.441 30.8608 16.441C29.5058 16.441 28.3638 16.8184 27.4347 17.573C26.5443 18.2899 26.0991 19.3652 26.0991 20.799C26.0991 21.9309 26.4476 22.9119 27.1444 23.742C27.8412 24.5343 28.7509 25.2889 29.8736 26.0058C30.9963 26.685 32.2157 27.4396 33.5319 28.2696C35.003 29.1752 36.3386 30.0996 37.5387 31.0429C38.7387 31.9861 39.6872 33.0237 40.384 34.1556C41.1196 35.2876 41.4873 36.627 41.4873 38.174C41.4873 39.9096 41.0228 41.3622 40.0937 42.5319C39.1646 43.7015 37.9451 44.5882 36.4354 45.1919C34.9643 45.7956 33.3384 46.0974 31.5576 46.0974C30.7059 46.0974 29.893 46.022 29.1187 45.871C28.3832 45.7579 27.667 45.5692 26.9702 45.3051C26.583 45.1164 26.1766 44.89 25.7507 44.6259C25.3636 44.3618 24.9765 44.0788 24.5894 43.777C24.2022 43.4751 23.8538 43.494 23.5441 43.8336C23.2344 44.1354 23.0021 44.758 22.8473 45.7013H21.5117C21.5891 44.4939 21.6472 43.0224 21.6859 41.2868C21.7246 39.5511 21.744 37.2496 21.744 34.382H23.0796C23.3506 36.495 23.7377 38.3438 24.2409 39.9285C24.7442 41.5131 25.5378 42.7583 26.6218 43.6638C27.7057 44.5316 29.2155 44.9655 31.1511 44.9655C31.9254 44.9655 32.6996 44.7957 33.4739 44.4561C34.2868 44.1166 34.9643 43.5506 35.5063 42.7583C36.0482 41.9659 36.3192 40.9094 36.3192 39.5889C36.3192 37.9287 35.6998 36.5704 34.461 35.514C33.2222 34.4575 31.6544 33.3444 29.7575 32.1748C28.3638 31.307 27.0476 30.4392 25.8088 29.5714C24.6087 28.7035 23.6215 27.7225 22.8473 26.6284C22.1118 25.5342 21.744 24.2136 21.744 22.6666C21.744 20.9687 22.1311 19.5916 22.9054 18.5351C23.7183 17.4409 24.7829 16.6486 26.0991 16.1581C27.4154 15.6298 28.8284 15.3657 30.3381 15.3657Z" fill="#E9E9E9"/>
</g>
</svg>
