<svg width="16" height="21" viewBox="0 0 16 21" fill="none" xmlns="http://www.w3.org/2000/svg">
<path fill-rule="evenodd" clip-rule="evenodd" d="M14.6004 3.30559C13.8061 0.927722 11.2346 -0.35606 8.85675 0.43818C8.10069 0.690714 7.59772 1.40683 7.61676 2.20372L7.7021 5.77923C7.72002 6.53022 8.17774 7.20052 8.87066 7.4906L9.53551 7.76893C9.88277 7.91434 10.1175 8.25118 10.0932 8.62683C9.96733 10.5677 9.05843 12.3883 7.5828 13.6553C7.29718 13.9005 6.88687 13.9153 6.56196 13.7252L5.93994 13.361C5.29166 12.9815 4.48083 13.0185 3.86982 13.4555L0.960757 15.5361C0.312398 15.9998 0.0423014 16.8322 0.294835 17.5883C1.08908 19.9661 3.66058 21.2499 6.03844 20.4557L6.88139 20.1741C13.516 17.9581 17.098 10.7832 14.8819 4.14853L14.6004 3.30559Z" fill="white"/>
</svg>
